<svg width="31" height="31" viewBox="0 0 31 31" fill="none" xmlns="http://www.w3.org/2000/svg">
<path d="M16.8171 0.517726C16.0723 -0.172575 14.9217 -0.172575 14.1829 0.517726L0.618005 13.1127C0.0366536 13.6577 -0.15713 14.4994 0.133546 15.2381C0.424221 15.9769 1.13274 16.4673 1.9321 16.4673H2.90102V27.1246C2.90102 29.2621 4.63902 31 6.7767 31H24.2172C26.3549 31 28.0929 29.2621 28.0929 27.1246V16.4673H29.0618C29.8612 16.4673 30.5758 15.9769 30.8665 15.2381C31.1571 14.4994 30.9633 13.6516 30.382 13.1127L16.8171 0.517726Z" fill="#7C3AED"/>
<rect x="7" y="10" width="17" height="5" rx="2.5" fill="white"/>
<circle cx="9.5" cy="25.5" r="2.5" fill="white"/>
<circle cx="9.5" cy="19.5" r="2.5" fill="white"/>
<circle cx="15.5" cy="25.5" r="2.5" fill="white"/>
<circle cx="15.5" cy="19.5" r="2.5" fill="white"/>
<circle cx="21.5" cy="25.5" r="2.5" fill="white"/>
<circle cx="21.5" cy="19.5" r="2.5" fill="white"/>
</svg>
